<svg width="16" height="16" viewBox="0 0 16 16" xmlns="http://www.w3.org/2000/svg">
<path d="M7.99998 14.6667C11.676 14.6667 14.6666 11.676 14.6666 8.00004C14.6666 4.32404 11.676 1.33337 7.99998 1.33337C4.32398 1.33337 1.33331 4.32404 1.33331 8.00004C1.33331 11.676 4.32398 14.6667 7.99998 14.6667ZM7.99998 2.66671C10.9406 2.66671 13.3333 5.05937 13.3333 8.00004C13.3333 10.9407 10.9406 13.3334 7.99998 13.3334C5.05931 13.3334 2.66665 10.9407 2.66665 8.00004C2.66665 5.05937 5.05931 2.66671 7.99998 2.66671Z" />
<path d="M12.6667 8.00004C12.6667 6.76236 12.175 5.57538 11.2998 4.70021C10.4247 3.82504 9.23768 3.33337 8 3.33337V12.6667C9.23768 12.6667 10.4247 12.175 11.2998 11.2999C12.175 10.4247 12.6667 9.23772 12.6667 8.00004Z" fill="black"/>
</svg>
