<svg width="12" height="12" viewBox="0 0 12 12" xmlns="http://www.w3.org/2000/svg">
<path d="M0 3.45508C0 1.79822 1.34315 0.455078 3 0.455078H77C78.6569 0.455078 80 1.79822 80 3.45508V59.5447C80 61.2016 78.6569 62.5447 77 62.5447H3C1.34315 62.5447 0 61.2016 0 59.5447V3.45508Z" />
<path opacity="0.675" d="M46.5987 30.1577L31.387 45.3694L24.2948 38.2772L5.66797 56.9036H73.345L46.5987 30.1577Z" />
<path opacity="0.675" d="M19.8208 24.3012C22.7087 24.3012 25.0498 21.9601 25.0498 19.0723C25.0498 16.1844 22.7087 13.8433 19.8208 13.8433C16.9329 13.8433 14.5918 16.1844 14.5918 19.0723C14.5918 21.9601 16.9329 24.3012 19.8208 24.3012Z" />
</svg>
