<svg width="16" height="16" viewBox="0 0 16 16" fill="none" xmlns="http://www.w3.org/2000/svg">
<path d="M4.66665 11.3333C5.43462 11.3323 6.17875 11.0665 6.77357 10.5807C7.3684 10.095 7.77753 9.41895 7.93198 8.66666H9.33331V10H10.6666V8.66666H12V10.6667H13.3333V8.66666H14V7.33333H7.93198C7.77753 6.58105 7.3684 5.90503 6.77357 5.41926C6.17875 4.9335 5.43462 4.66769 4.66665 4.66666C2.82865 4.66666 1.33331 6.162 1.33331 8C1.33331 9.838 2.82865 11.3333 4.66665 11.3333ZM4.66665 6C5.76931 6 6.66665 6.89733 6.66665 8C6.66665 9.10266 5.76931 10 4.66665 10C3.56398 10 2.66665 9.10266 2.66665 8C2.66665 6.89733 3.56398 6 4.66665 6Z" fill="black"/>
</svg>
