<svg width="111" height="26" viewBox="0 0 111 26" fill="none" xmlns="http://www.w3.org/2000/svg">
<g clip-path="url(#clip0_3_2)">
<path d="M2.29775 12.9419V13.0579C3.83942 13.4083 4.56602 14.603 4.56602 16.4104V19.6749C4.56602 21.8609 4.62429 23.496 7.01198 23.496C7.10018 23.4946 7.18776 23.5111 7.26951 23.5443C7.35126 23.5775 7.42551 23.6269 7.48785 23.6894C7.55019 23.7519 7.59935 23.8264 7.63241 23.9084C7.66548 23.9903 7.68176 24.0781 7.68031 24.1665V25.3619C7.67872 25.448 7.66014 25.533 7.62564 25.6119C7.59113 25.6909 7.54139 25.7622 7.47927 25.8217C7.41714 25.8813 7.34387 25.928 7.26368 25.9591C7.18348 25.9901 7.09794 26.005 7.01198 26.0028H6.69041C3.37469 26.0028 1.97833 24.5457 1.97833 20.9892V16.4378C1.97833 14.8928 1.51288 14.3391 0.553199 14.1935C0.39849 14.1741 0.256396 14.0981 0.154264 13.98C0.0521321 13.8619 -0.00282121 13.7102 -2.00223e-05 13.554V12.4458C0.000653007 12.2873 0.0560496 12.134 0.156762 12.0117C0.257475 11.8895 0.397296 11.806 0.55248 11.7754C1.51072 11.6593 1.97761 11.1027 1.97761 9.56056V4.98391C1.97761 1.45697 3.37397 -9.18205e-05 6.69041 -9.18205e-05H7.01054C7.0965 -0.00229399 7.18204 0.0125698 7.26224 0.0436433C7.34244 0.0747167 7.41571 0.121386 7.47783 0.180962C7.53995 0.240538 7.58969 0.311843 7.6242 0.390771C7.6587 0.469698 7.67728 0.554687 7.67887 0.640842V1.83619C7.67887 2.21542 7.39111 2.47713 7.01054 2.47713C4.62501 2.47713 4.56458 4.13534 4.56458 6.32489V9.56056C4.56602 11.3673 3.83942 12.5922 2.29775 12.9419Z" fill="#FA4616"/>
<path d="M105.933 6.32499C105.933 4.13903 105.876 2.47722 103.52 2.47722H103.49C103.406 2.47899 103.322 2.46362 103.243 2.43203C103.165 2.40045 103.094 2.35331 103.034 2.29343C102.974 2.23356 102.927 2.1622 102.896 2.08364C102.864 2.00508 102.849 1.92094 102.851 1.83629V0.640934C102.853 0.471587 102.921 0.309755 103.04 0.19C103.16 0.0702448 103.321 0.00205745 103.49 0L103.81 0C107.125 0 108.522 1.45706 108.522 4.984V9.56066C108.522 11.1057 108.987 11.6594 109.947 11.7754C110.102 11.8062 110.242 11.8898 110.342 12.012C110.443 12.1342 110.499 12.2875 110.499 12.4459V13.5541C110.502 13.7104 110.448 13.8623 110.346 13.9806C110.244 14.0989 110.102 14.1753 109.947 14.195C108.987 14.3392 108.522 14.8943 108.522 16.4393V20.9864C108.522 24.5429 107.125 26 103.81 26H103.489C103.321 25.9979 103.159 25.9298 103.04 25.81C102.92 25.6902 102.852 25.5284 102.85 25.3591V24.1637C102.848 24.0775 102.863 23.9918 102.894 23.9114C102.925 23.8309 102.971 23.7575 103.031 23.6952C103.09 23.6328 103.161 23.5829 103.24 23.5483C103.319 23.5136 103.403 23.4949 103.489 23.4932H103.519C105.875 23.4932 105.933 21.861 105.933 19.6721V16.4105C105.933 14.6031 106.66 13.4084 108.202 13.058V12.942C106.66 12.5923 105.933 11.3674 105.933 9.56066L105.933 6.32499Z" fill="#FA4616"/>
<path d="M20.003 17.1091C20.1842 17.1124 20.3568 17.1872 20.4832 17.3174C20.6096 17.4476 20.6795 17.6225 20.6778 17.8041V19.5431C20.6795 19.7247 20.6096 19.8997 20.4832 20.0298C20.3568 20.16 20.1842 20.2349 20.003 20.2381H13.0248C12.8435 20.2351 12.6708 20.1603 12.5444 20.03C12.418 19.8998 12.3481 19.7248 12.35 19.5431V7.41149C12.3481 7.22974 12.4179 7.0546 12.5444 6.92427C12.6708 6.79394 12.8435 6.71898 13.0248 6.71576H14.9715C15.1528 6.71917 15.3254 6.79418 15.4518 6.92447C15.5781 7.05476 15.648 7.22979 15.6463 7.41149V17.1091H20.003Z" fill="#FA4616"/>
<path d="M34.3061 13.4769C34.3061 17.6109 31.6443 20.2381 27.1545 20.2381H23.1065C22.9253 20.2349 22.7527 20.16 22.6263 20.0298C22.4999 19.8997 22.4299 19.7247 22.4317 19.5431V7.41149C22.4299 7.22979 22.4999 7.05476 22.6262 6.92447C22.7526 6.79418 22.9252 6.71917 23.1065 6.71576H27.1545C31.6458 6.71576 34.3061 9.34294 34.3061 13.4769ZM31.0098 13.4769C31.0098 11.0819 29.3516 9.82598 27.1545 9.82598H25.728V17.1077H27.1545C29.3516 17.1091 31.0098 15.8727 31.0098 13.4769Z" fill="#FA4616"/>
<path d="M48.1279 6.71573H50.3444C50.5257 6.71896 50.6984 6.79391 50.8248 6.92424C50.9513 7.05458 51.0211 7.22971 51.0192 7.41146V19.5431C51.0211 19.7247 50.9512 19.8998 50.8248 20.03C50.6984 20.1602 50.5257 20.235 50.3444 20.2381H48.3963C48.215 20.2348 48.0424 20.16 47.9161 20.0298C47.7897 19.8996 47.7197 19.7247 47.7215 19.5431V12.2022L44.4065 17.6693C44.3438 17.7713 44.2557 17.8551 44.1509 17.9126C44.0461 17.9702 43.9281 17.9993 43.8086 17.9973H43.3655C43.2491 17.9988 43.1344 17.9693 43.0333 17.9116C42.9321 17.8539 42.8481 17.7703 42.79 17.6693L39.4742 12.2022V19.5431C39.4746 19.6345 39.4569 19.7251 39.4222 19.8096C39.3874 19.8942 39.3363 19.971 39.2717 20.0356C39.2072 20.1002 39.1305 20.1514 39.0461 20.1862C38.9617 20.2209 38.8713 20.2385 38.78 20.2381H36.8499C36.7586 20.2385 36.6682 20.2209 36.5838 20.1862C36.4994 20.1514 36.4227 20.1002 36.3582 20.0356C36.2936 19.971 36.2425 19.8942 36.2077 19.8096C36.173 19.7251 36.1553 19.6345 36.1556 19.5431V7.41146C36.1553 7.31999 36.173 7.22935 36.2077 7.14477C36.2425 7.06019 36.2936 6.98334 36.3581 6.91866C36.4227 6.85398 36.4994 6.80275 36.5838 6.76792C36.6682 6.73309 36.7586 6.71535 36.8499 6.71573H39.0469C39.2255 6.71672 39.4009 6.76364 39.5562 6.85201C39.7115 6.94037 39.8416 7.06722 39.9339 7.22041L43.577 13.2282L47.2395 7.22041C47.332 7.06706 47.4623 6.94012 47.6179 6.85175C47.7735 6.76338 47.9491 6.71654 48.1279 6.71573Z" fill="#FA4616"/>
<path d="M61.5419 7.0654V7.41363C61.5393 7.49982 61.504 7.5818 61.4432 7.64277C61.3823 7.70375 61.3005 7.73913 61.2145 7.74166H57.86V19.8906C57.8602 19.9363 57.8513 19.9815 57.834 20.0238C57.8166 20.066 57.7911 20.1044 57.7588 20.1367C57.7266 20.169 57.6883 20.1946 57.6461 20.212C57.604 20.2294 57.5588 20.2383 57.5132 20.2381H57.1665C57.1209 20.2383 57.0757 20.2294 57.0335 20.212C56.9914 20.1946 56.9531 20.169 56.9208 20.1367C56.8886 20.1044 56.8631 20.066 56.8457 20.0238C56.8284 19.9815 56.8195 19.9363 56.8197 19.8906V7.7395H53.4846C53.3955 7.74089 53.3094 7.70739 53.2447 7.64611C53.1799 7.58484 53.1416 7.50065 53.1378 7.41146V7.0654C53.1376 7.01971 53.1465 6.97444 53.1638 6.93219C53.1812 6.88995 53.2067 6.85156 53.239 6.81925C53.2712 6.78695 53.3095 6.76136 53.3517 6.74396C53.3938 6.72657 53.439 6.71771 53.4846 6.7179H61.2145C61.3035 6.72165 61.3875 6.76007 61.4487 6.82497C61.5098 6.88988 61.5433 6.97615 61.5419 7.0654Z" fill="#FA4616"/>
<path d="M71.161 19.2143C71.2042 19.214 71.2469 19.2223 71.2868 19.2388C71.3267 19.2552 71.3629 19.2794 71.3934 19.31C71.4239 19.3406 71.4479 19.377 71.4643 19.417C71.4806 19.457 71.4888 19.4998 71.4884 19.5431V19.8906C71.4898 19.9798 71.4563 20.0661 71.3952 20.131C71.3341 20.1959 71.25 20.2343 71.161 20.2381H64.3944C64.3488 20.2383 64.3036 20.2294 64.2614 20.212C64.2193 20.1946 64.181 20.169 64.1487 20.1367C64.1165 20.1044 64.091 20.066 64.0736 20.0238C64.0563 19.9815 64.0474 19.9363 64.0476 19.8906V7.0654C64.0474 7.01971 64.0563 6.97444 64.0736 6.93219C64.091 6.88995 64.1165 6.85156 64.1487 6.81925C64.181 6.78695 64.2193 6.76136 64.2614 6.74396C64.3036 6.72657 64.3488 6.71771 64.3944 6.7179H70.9682C71.0138 6.71771 71.059 6.72657 71.1012 6.74396C71.1433 6.76136 71.1816 6.78695 71.2139 6.81925C71.2461 6.85156 71.2716 6.88995 71.289 6.93219C71.3064 6.97444 71.3152 7.01971 71.315 7.0654V7.41363C71.3113 7.50281 71.2729 7.587 71.2082 7.64828C71.1434 7.70955 71.0573 7.74306 70.9682 7.74166H65.0692V12.7257H70.5244C70.57 12.7255 70.6152 12.7343 70.6574 12.7517C70.6996 12.7691 70.738 12.7947 70.7702 12.827C70.8025 12.8593 70.8281 12.8977 70.8456 12.9399C70.863 12.9822 70.8719 13.0274 70.8719 13.0732V13.4019C70.8719 13.4476 70.863 13.4929 70.8456 13.5352C70.8281 13.5774 70.8025 13.6158 70.7702 13.6481C70.738 13.6804 70.6996 13.706 70.6574 13.7234C70.6152 13.7408 70.57 13.7496 70.5244 13.7494H65.0692V19.2165L71.161 19.2143Z" fill="#FA4616"/>
<path d="M85.0778 18.2295C84.4445 18.9378 83.6687 19.5036 82.8015 19.8898C81.9342 20.276 80.9953 20.4738 80.0463 20.4702C76.1917 20.4702 73.2228 17.3406 73.2228 13.4769C73.2228 9.6133 76.1917 6.46487 80.0463 6.46487C80.9972 6.46007 81.9381 6.65914 82.8059 7.04872C83.6737 7.4383 84.4483 8.00938 85.0778 8.72364C85.1119 8.75923 85.1374 8.80223 85.1523 8.84929C85.1672 8.89635 85.171 8.94621 85.1636 8.99501C85.1562 9.04382 85.1376 9.09024 85.1094 9.1307C85.0811 9.17116 85.044 9.20456 85.0008 9.22831L84.7131 9.42153C84.6498 9.46802 84.5718 9.48979 84.4936 9.48276C84.4155 9.47572 84.3426 9.44037 84.2886 9.38332C83.7534 8.78808 83.0984 8.31326 82.3668 7.99016C81.6352 7.66706 80.8436 7.50301 80.0441 7.50882C76.7486 7.50882 74.2616 10.1764 74.2616 13.4784C74.2616 16.7623 76.7486 19.4479 80.0441 19.4479C80.8436 19.4536 81.6352 19.2896 82.3668 18.9665C83.0984 18.6434 83.7534 18.1686 84.2886 17.5734C84.3402 17.5137 84.4117 17.4748 84.4898 17.464C84.568 17.4533 84.6473 17.4714 84.7131 17.515L85.0008 17.7082C85.0437 17.7344 85.0803 17.7696 85.1081 17.8116C85.1358 17.8535 85.154 17.901 85.1614 17.9508C85.1687 18.0005 85.1651 18.0513 85.1506 18.0995C85.1362 18.1477 85.1113 18.192 85.0778 18.2295Z" fill="#FA4616"/>
<path d="M96.7594 6.71576H97.1069C97.1524 6.71557 97.1976 6.72443 97.2398 6.74183C97.2819 6.75922 97.3202 6.78481 97.3525 6.81712C97.3847 6.84942 97.4102 6.88781 97.4276 6.93006C97.445 6.9723 97.4538 7.01758 97.4536 7.06327V19.8906C97.4538 19.9363 97.445 19.9816 97.4276 20.0238C97.4102 20.0661 97.3847 20.1044 97.3525 20.1367C97.3202 20.169 97.2819 20.1946 97.2398 20.212C97.1976 20.2294 97.1524 20.2383 97.1069 20.2381H96.7594C96.6704 20.2343 96.5864 20.1959 96.5253 20.131C96.4641 20.0661 96.4307 19.9798 96.4321 19.8906V13.9405H88.5661V19.8906C88.5663 19.9363 88.5575 19.9816 88.5401 20.0238C88.5228 20.0661 88.4972 20.1044 88.465 20.1367C88.4328 20.169 88.3945 20.1946 88.3523 20.212C88.3102 20.2294 88.265 20.2383 88.2194 20.2381H87.8726C87.7836 20.2344 87.6995 20.196 87.6382 20.1311C87.577 20.0662 87.5434 19.9799 87.5446 19.8906V7.06543C87.5434 6.97611 87.577 6.88984 87.6382 6.82495C87.6995 6.76007 87.7836 6.72167 87.8726 6.71793H88.2194C88.265 6.71773 88.3102 6.72659 88.3523 6.74399C88.3945 6.76138 88.4328 6.78697 88.465 6.81928C88.4972 6.85159 88.5228 6.88997 88.5401 6.93222C88.5575 6.97447 88.5663 7.01974 88.5661 7.06543V12.8994H96.4313V7.06543C96.4294 6.97569 96.4627 6.88876 96.524 6.82337C96.5854 6.75797 96.6699 6.71933 96.7594 6.71576Z" fill="#FA4616"/>
</g>
<defs>
<clipPath id="clip0_3_2">
<rect width="110.5" height="26" fill="white"/>
</clipPath>
</defs>
</svg>
