<svg width="13" height="13" viewBox="0 0 13 13" xmlns="http://www.w3.org/2000/svg">
<path d="M10.479 7.66253C10.581 7.41953 10.2895 7.21253 10.045 7.32053C9.55628 7.53506 9.02823 7.6454 8.4945 7.64453C6.402 7.64453 4.706 5.98253 4.706 3.93203C4.70523 3.2397 4.90193 2.56151 5.273 1.97703C5.415 1.75303 5.2445 1.44303 4.9845 1.50903C2.98 2.02053 1.5 3.80653 1.5 5.93103C1.5 8.45453 3.5875 10.5 6.163 10.5C8.113 10.5 9.783 9.32753 10.479 7.66253Z"/>
<path d="M7.80526 1.5514C7.54026 1.3744 7.22426 1.6904 7.40076 1.9554L7.71576 2.4279C7.84354 2.61948 7.91174 2.84461 7.91174 3.0749C7.91174 3.30518 7.84354 3.53031 7.71576 3.7219L7.40076 4.1944C7.22426 4.4594 7.54076 4.7754 7.80576 4.5984L8.27776 4.2834C8.46934 4.15561 8.69447 4.08742 8.92476 4.08742C9.15505 4.08742 9.38018 4.15561 9.57176 4.2834L10.0443 4.5984C10.3093 4.7754 10.6253 4.4594 10.4483 4.1944L10.1333 3.7219C10.0055 3.53031 9.93728 3.30518 9.93728 3.0749C9.93728 2.84461 10.0055 2.61948 10.1333 2.4279L10.4483 1.9554C10.6253 1.6904 10.3093 1.3744 10.0438 1.5514L9.57176 1.8664C9.38018 1.99418 9.15505 2.06237 8.92476 2.06237C8.69447 2.06237 8.46934 1.99418 8.27776 1.8664L7.80526 1.5514Z"/>
</svg>
